<?xml version="1.0" encoding="UTF-8"?>
<svg version="1.1" xmlns="http://www.w3.org/2000/svg" width="192" height="192">
<path d="M0 0 C25.74 0 51.48 0 78 0 C78 5.61 78 11.22 78 17 C65.625 17.495 65.625 17.495 53 18 C55.31 19.65 57.62 21.3 60 23 C62.49579173 26.06500739 64 28.97416737 64 33 C62.4188708 33.50692692 60.83498617 34.00526443 59.25 34.5 C58.36828125 34.7784375 57.4865625 35.056875 56.578125 35.34375 C54 36 54 36 50 36 C50 38.97 50 41.94 50 45 C50.70125 45.0825 51.4025 45.165 52.125 45.25 C57.87949761 46.75117329 61.66727036 50.18605718 65 55 C66.85755407 60.57266221 66.72152545 66.65504227 65 72.25 C61.71476498 76.76719815 57.79560175 81.29120012 52.2421875 82.69921875 C51.13230469 82.84810547 51.13230469 82.84810547 50 83 C50 83.99 50 84.98 50 86 C51.86205078 86.05607422 51.86205078 86.05607422 53.76171875 86.11328125 C55.40367511 86.1789595 57.04560087 86.2454062 58.6875 86.3125 C59.91243164 86.34633789 59.91243164 86.34633789 61.16210938 86.38085938 C65.78351378 86.58667091 69.38528589 86.79339878 73 90 C73.66913403 92.79965679 73.23868841 95.08800141 73 98 C66.1564984 101.77966072 57.91746043 101.15786809 50.28515625 101.16796875 C49.38937363 101.17129715 48.493591 101.17462555 47.57066345 101.17805481 C45.6891226 101.18308378 43.80757296 101.18546439 41.92602539 101.18530273 C39.07357912 101.1874915 36.22151885 101.20569668 33.36914062 101.22460938 C31.52864714 101.22754384 29.68815184 101.22952828 27.84765625 101.23046875 C26.58937767 101.24124702 26.58937767 101.24124702 25.30567932 101.25224304 C10.19492324 101.19492324 10.19492324 101.19492324 7 98 C6.92820036 96.48071962 6.91607993 94.95832518 6.9375 93.4375 C6.95103516 92.19806641 6.95103516 92.19806641 6.96484375 90.93359375 C6.97644531 90.29550781 6.98804688 89.65742188 7 89 C11.41029783 86.79050168 15.48940324 86.7629352 20.3125 86.875 C21.05306641 86.88402344 21.79363281 86.89304687 22.55664062 86.90234375 C24.37123467 86.92575787 26.18566071 86.96162385 28 87 C28 86.01 28 85.02 28 84 C26.700625 83.62875 26.700625 83.62875 25.375 83.25 C18.44037632 80.68162086 13.54287189 76.48564822 10 70 C9.505 67.03 9.505 67.03 9 64 C13.95 63.01 18.9 62.02 24 61 C25.485 63.475 25.485 63.475 27 66 C27.33 62.04 27.66 58.08 28 54 C26.35 53.67 24.7 53.34 23 53 C17.85112126 50.10493448 13.80689994 46.75949355 12 41 C11.23037431 34.9969196 12.01386406 30.35445066 15 25 C17.53024798 22.15347103 19.83302253 20.11131831 23 18 C11.615 17.505 11.615 17.505 0 17 C0 11.39 0 5.78 0 0 Z " fill="#1C064F" transform="translate(57,51)"/>
<path d="M0 0 C25.74 0 51.48 0 78 0 C78 5.61 78 11.22 78 17 C65.625 17.495 65.625 17.495 53 18 C55.31 19.65 57.62 21.3 60 23 C62.49579173 26.06500739 64 28.97416737 64 33 C62.4188708 33.50692692 60.83498617 34.00526443 59.25 34.5 C58.36828125 34.7784375 57.4865625 35.056875 56.578125 35.34375 C54 36 54 36 50 36 C50 38.97 50 41.94 50 45 C47.43471112 44.40615522 44.87324546 43.80038512 42.3125 43.1875 C41.59126953 43.02185547 40.87003906 42.85621094 40.12695312 42.68554688 C31.57585539 40.61610313 31.57585539 40.61610313 29 38 C28.38297775 34.41635699 28.53326394 30.93472705 28.6875 27.3125 C28.790625 23.909375 28.89375 20.50625 29 17 C19.43 17 9.86 17 0 17 C0 11.39 0 5.78 0 0 Z " fill="#9C02B3" transform="translate(57,51)"/>
<path d="M0 0 C0 6.93 0 13.86 0 21 C3.38378116 22.35351247 6.39628586 23.44913234 9.87109375 24.3671875 C10.77537109 24.61339844 11.67964844 24.85960938 12.61132812 25.11328125 C14.48984852 25.61958599 16.37006814 26.11962926 18.25195312 26.61328125 C25.98143885 28.73682679 31.29007858 31.19678017 36 38 C37.85755407 43.57266221 37.72152545 49.65504227 36 55.25 C31.44509823 61.51298993 27.74632631 64.70894562 20 66 C19.505 55.605 19.505 55.605 19 45 C13.25523131 42.12761565 8.54719551 40.1699989 2.5 38.625 C-5.36091294 36.45162868 -11.14524028 34.01450585 -16 27.1875 C-17.7734686 21.53456883 -17.59694433 16.88508737 -15.8125 11.25 C-12.28896865 4.93194379 -7.46985906 0 0 0 Z " fill="#FC9A18" transform="translate(86,68)"/>
<path d="M0 0 C0.74056641 0.00902344 1.48113281 0.01804688 2.24414062 0.02734375 C4.05873467 0.05075787 5.87316071 0.08662385 7.6875 0.125 C7.6875 1.115 7.6875 2.105 7.6875 3.125 C11.16701523 2.98681468 14.64600495 2.83817399 18.125 2.6875 C19.11822266 2.64818359 20.11144531 2.60886719 21.13476562 2.56835938 C22.07900391 2.52646484 23.02324219 2.48457031 23.99609375 2.44140625 C25.30791626 2.38641968 25.30791626 2.38641968 26.64624023 2.33032227 C28.6802402 2.34318934 28.6802402 2.34318934 29.6875 1.125 C33.15958807 0.87401076 36.6449062 0.93977904 40.125 0.9375 C41.10533203 0.92525391 42.08566406 0.91300781 43.09570312 0.90039062 C44.50045898 0.89749023 44.50045898 0.89749023 45.93359375 0.89453125 C46.79654053 0.89042236 47.6594873 0.88631348 48.54858398 0.88208008 C50.6875 1.125 50.6875 1.125 52.6875 3.125 C52.95741906 5.81339385 52.77487357 8.41641936 52.6875 11.125 C45.8439984 14.90466072 37.60496043 14.28286809 29.97265625 14.29296875 C29.07687363 14.29629715 28.181091 14.29962555 27.25816345 14.30305481 C25.3766226 14.30808378 23.49507296 14.31046439 21.61352539 14.31030273 C18.76107912 14.3124915 15.90901885 14.33069668 13.05664062 14.34960938 C11.21614714 14.35254384 9.37565184 14.35452828 7.53515625 14.35546875 C6.27687767 14.36624702 6.27687767 14.36624702 4.99317932 14.37724304 C-10.11757676 14.31992324 -10.11757676 14.31992324 -13.3125 11.125 C-13.38429964 9.60571962 -13.39642007 8.08332518 -13.375 6.5625 C-13.36597656 5.73621094 -13.35695312 4.90992188 -13.34765625 4.05859375 C-13.33605469 3.42050781 -13.32445312 2.78242188 -13.3125 2.125 C-8.90220217 -0.08449832 -4.82309676 -0.1120648 0 0 Z " fill="#333132" transform="translate(77.3125,137.875)"/>
<path d="M0 0 C63.36 0 126.72 0 192 0 C192 63.36 192 126.72 192 192 C128.64 192 65.28 192 0 192 C0 128.64 0 65.28 0 0 Z M1 1 C1 63.7 1 126.4 1 191 C63.7 191 126.4 191 191 191 C191 128.3 191 65.6 191 1 C128.3 1 65.6 1 1 1 Z " fill="#000000" transform="translate(0,0)"/>
<path d="M0 0 C5.3353121 6.59067966 4.37211815 13.96844993 4 22 C-4.01081242 20.68106208 -9.06461183 16.53823988 -13.87109375 10.16015625 C-15.27329463 7.47705215 -15.6303172 4.98720702 -16 2 C-13.71022755 1.47090114 -11.41810812 0.95194981 -9.125 0.4375 C-7.84882812 0.14746094 -6.57265625 -0.14257812 -5.2578125 -0.44140625 C-2 -1 -2 -1 0 0 Z " fill="#FA6C2E" transform="translate(82,113)"/>
<path d="M0 0 C6.08374835 1.91897848 9.97111404 4.00524755 13.3125 9.5625 C15 13 15 13 15 16 C13.4188708 16.50692692 11.83498617 17.00526443 10.25 17.5 C9.36828125 17.7784375 8.4865625 18.056875 7.578125 18.34375 C5 19 5 19 1 19 C-0.65497356 15.69005287 -0.10084335 12.00877 -0.0625 8.375 C-0.05798828 7.57320313 -0.05347656 6.77140625 -0.04882812 5.9453125 C-0.03703168 3.96350994 -0.01909605 1.98174567 0 0 Z " fill="#FCC304" transform="translate(106,68)"/>
<path d="M0 0 C3.875 0.875 3.875 0.875 5 2 C5.14115161 4.67058851 5.04247107 7.32432238 5 10 C1.86501708 11.85776765 -0.37471432 12.20140476 -4 12 C-3.67 11.34 -3.34 10.68 -3 10 C0.0625 9.375 0.0625 9.375 3 9 C2.67039784 3.98464948 2.67039784 3.98464948 0 0 Z " fill="#080808" transform="translate(125,139)"/>
<path d="M0 0 C2.0625 0.4375 2.0625 0.4375 4 1 C3.505 1.37125 3.01 1.7425 2.5 2.125 C0.40244486 4.74694393 0.78256165 6.73842472 1 10 C3.97 10.495 3.97 10.495 7 11 C7 11.33 7 11.66 7 12 C0.125 11.125 0.125 11.125 -1 10 C-1.0979057 8.50261876 -1.12974864 7.00057108 -1.125 5.5 C-1.12757812 4.6853125 -1.13015625 3.870625 -1.1328125 3.03125 C-1 1 -1 1 0 0 Z " fill="#000000" transform="translate(65,139)"/>
</svg>
